<svg width="130" height="51" viewBox="0 0 130 51" fill="none" xmlns="http://www.w3.org/2000/svg">
<g clip-path="url(#clip0_15_18)">
<path d="M0 0.230469H4.11081V7.51375H7.66027V10.6522H0V0.230469Z" fill="#0A0204"/>
<path d="M8.08346 10.6605L13.3342 0.75903C13.5156 0.409365 13.8438 0.170569 14.336 0.0511706C14.4742 0.0170569 14.6469 0 14.8542 0C15.0615 0 15.286 0.059699 15.5278 0.170569C15.7696 0.281438 15.9683 0.469064 16.1064 0.716388L21.7372 10.652H16.3742L15.9596 9.62007H13.1011L12.747 10.652H8.07483L8.08346 10.6605ZM13.4379 7.55619H15.571L14.5606 4.73328L13.4379 7.55619Z" fill="#0A0204"/>
<path d="M0.0604248 12.2897C6.32164 12.0083 10.8211 11.8633 13.5587 11.8633C18.6454 11.8633 22.2985 12.4347 24.5094 13.569C26.4957 14.5924 27.4888 16.1531 27.4888 18.234C27.4888 19.4877 27.1607 20.5367 26.4957 21.3895C25.8307 22.2424 24.8203 22.9673 23.4558 23.5813C25.1657 24.1527 26.4784 24.9629 27.4025 26.0034C28.6115 27.385 29.2161 29.2698 29.2161 31.6748C29.2161 36.8601 25.1571 39.5977 17.0391 39.8962C15.8732 39.9389 14.9664 39.9645 14.3187 39.9645C13.671 39.9645 13.1097 39.9645 12.6433 39.9474C12.1769 39.9303 11.6329 39.9218 11.0283 39.9048C10.4238 39.8877 9.76746 39.8706 9.0593 39.8536C8.35113 39.8365 7.63433 39.8109 6.90889 39.7854C6.18346 39.7598 5.46666 39.7342 4.76713 39.7086C4.0676 39.683 3.40262 39.6574 2.79809 39.6318C2.19355 39.6063 1.64084 39.5807 1.17449 39.5636C0.708136 39.5466 0.336782 39.5295 0.0863333 39.5039V12.2897H0.0604248ZM10.8729 24.7753C12.8333 24.0248 14.1374 23.4278 14.7851 22.9844C16.1237 22.0974 16.7887 21.1422 16.7887 20.1103C16.7887 19.3939 16.4087 18.9333 15.6487 18.7287C15.4414 18.669 15.2255 18.6434 14.9923 18.6434C14.7592 18.6434 14.4914 18.686 14.1892 18.7628C13.8869 18.8395 13.5846 18.9419 13.2824 19.0698C12.8247 19.2404 12.3065 19.4877 11.7538 19.8118C11.2011 20.1359 10.8988 20.3064 10.8815 20.332V24.7753H10.8729ZM17.7127 28.9628C17.7127 28.0076 17.1427 27.53 16.0028 27.53C15.1391 27.5215 13.7919 28.0161 11.9697 29.014C11.5465 29.2442 11.1838 29.4318 10.8815 29.5939V33.9007C11.0456 33.841 11.1924 33.7899 11.3392 33.7302C11.4861 33.6705 11.8142 33.5511 12.3324 33.3549C14.1805 32.6726 15.4328 32.1098 16.1064 31.6663C17.1946 30.9499 17.73 30.0459 17.7127 28.9628Z" fill="#0A0204"/>
<path d="M77.1554 39.572H66.3948V12.2896H77.1554V39.572Z" fill="#0A0204"/>
<path d="M80.2385 12.2896H106.397V21.1421H98.6939V39.5805H87.9333V21.1421H80.2299V12.2896H80.2385Z" fill="#0A0204"/>
<path d="M109.48 12.2896H129.395V20.1528H120.241V22.3872H129.361V29.082H120.241V31.6661H130V39.5805H109.48V12.2896Z" fill="#0A0204"/>
<path d="M66.3947 41.7891C68.7006 41.6185 70.2033 41.5332 70.9114 41.5332C71.6196 41.5332 72.1723 41.6014 72.5782 41.7294C72.9841 41.8573 73.3555 42.0364 73.675 42.2666C74.3055 42.7016 74.7804 43.2901 75.1 44.015C75.4195 44.7399 75.5836 45.4819 75.5836 46.2238C75.5836 46.9658 75.4627 47.6225 75.2122 48.1768C74.9618 48.7312 74.625 49.2003 74.1932 49.584C73.3037 50.3772 72.1637 50.7695 70.756 50.7695H66.3861V41.7805L66.3947 41.7891ZM69.9442 44.6461V48.0745C70.1428 47.9039 70.3674 47.7419 70.6005 47.5713C71.5073 46.9317 71.9564 46.2579 71.9564 45.5586C71.9564 45.2175 71.8528 44.9019 71.6455 44.612C71.4383 44.322 71.1705 44.177 70.8424 44.177C70.5142 44.177 70.2119 44.3305 69.9356 44.6461H69.9442Z" fill="#0A0204"/>
<path d="M76.715 45.3118C77.1381 45.3118 77.4318 45.1156 77.6131 44.7318C77.6822 44.5613 77.7254 44.3651 77.7427 44.1434H76.715V41.7725H80.1781V44.041C80.1781 45.3715 79.5476 46.2158 78.2781 46.574C77.8377 46.7019 77.3195 46.7616 76.715 46.7616V45.3118Z" fill="#0A0204"/>
<path d="M84.8674 50.778H81.318V41.7891H84.8674V50.778Z" fill="#0A0204"/>
<path d="M86.2666 41.7891H87.5707L91.9751 45.8742L96.4918 41.7891H97.7527V50.778H94.0046V47.8613L91.6815 50.3857L89.4188 47.9295V50.778H86.2666V41.7891Z" fill="#0A0204"/>
<path d="M99.1516 41.8149C101.034 41.6273 102.459 41.542 103.427 41.542C104.394 41.542 105.154 41.6102 105.724 41.7467C106.294 41.8831 106.751 42.1049 107.114 42.3948C107.822 42.9662 108.176 43.9044 108.176 45.2007C108.176 45.7892 108.064 46.3264 107.84 46.8126C107.615 47.2987 107.313 47.7166 106.924 48.0662C106.536 48.4159 106.086 48.6888 105.56 48.885C105.033 49.0811 104.48 49.1749 103.893 49.1749L102.882 49.1494V50.7783H99.1602V41.8064L99.1516 41.8149ZM104.29 43.8788C103.962 43.8788 103.487 44.1005 102.857 44.5525V46.6761L103.522 46.352C103.962 46.1388 104.273 45.9341 104.446 45.738C104.774 45.3713 104.938 45.0131 104.938 44.6549C104.938 44.2967 104.817 44.0579 104.566 43.9385C104.489 43.9044 104.394 43.8788 104.29 43.8788Z" fill="#0A0204"/>
<path d="M118.289 44.7314C118.289 45.9339 117.685 46.8891 116.484 47.5884L118.954 50.778H114.455L112.857 48.1683V50.778H109.135V41.7891C111.545 41.6185 113.125 41.5332 113.876 41.5332C114.628 41.5332 115.198 41.5758 115.586 41.6697C116.666 41.917 117.434 42.4372 117.901 43.2389C118.16 43.6994 118.289 44.1941 118.298 44.7314H118.289ZM114.904 44.6376C114.904 44.1088 114.705 43.8444 114.308 43.8444C114.135 43.8444 113.902 43.9041 113.591 44.032L112.831 44.3391V46.5394C114.213 46.0362 114.904 45.3966 114.904 44.6376Z" fill="#0A0204"/>
<path d="M124.853 51C123.506 51 122.331 50.5651 121.338 49.7037C121.018 49.4308 120.751 49.1152 120.517 48.7656C120.025 48.0151 119.775 47.1793 119.775 46.2582C119.775 45.3371 119.999 44.5099 120.457 43.802C120.915 43.0856 121.528 42.5313 122.297 42.139C123.065 41.7467 123.86 41.542 124.68 41.542C125.501 41.542 126.226 41.6529 126.856 41.8661C127.487 42.0793 128.031 42.3948 128.497 42.8042C128.964 43.2136 129.326 43.7082 129.594 44.2967C129.862 44.8851 129.991 45.5504 129.991 46.2923C129.991 47.2134 129.75 48.0407 129.275 48.757C128.8 49.4734 128.169 50.0278 127.375 50.4201C126.58 50.8124 125.742 51 124.844 51H124.853ZM126.416 45.2092C126.416 44.5781 126.105 44.254 125.492 44.254C125.224 44.254 124.931 44.4161 124.602 44.7487C124.11 45.2519 123.773 45.8403 123.575 46.5311C123.514 46.7529 123.48 46.949 123.48 47.1366C123.48 47.7592 123.799 48.0748 124.438 48.0748C124.689 48.0748 124.982 47.9127 125.311 47.5716C125.786 47.0769 126.122 46.48 126.321 45.7721C126.381 45.5504 126.416 45.3627 126.416 45.2092Z" fill="#0A0204"/>
<path d="M65.5938 35.7654L35.537 43.6403L27.6412 13.9658L57.698 6.09092L65.5957 35.7728L65.5938 35.7654ZM39.3953 37.1116L59.0054 31.9738L53.8526 12.6083L34.2426 17.7462L39.3953 37.1116Z" fill="#0A0204"/>
</g>
<defs>
<clipPath id="clip0_15_18">
<rect width="130" height="51" fill="white"/>
</clipPath>
</defs>
</svg>
