<svg width="1596" height="833" viewBox="0 0 1596 833" fill="none" xmlns="http://www.w3.org/2000/svg">
<path d="M1520.47 4.46474C1520.47 43.7187 1552.28 75.5344 1591.54 75.5344V88.8929C1590.76 88.8125 1589.98 88.7768 1589.19 88.7768C1574.96 88.7768 1563.7 101.528 1566.24 116.235C1568.17 127.379 1578.05 135.398 1589.17 135.398C1589.9 135.398 1590.64 135.362 1591.39 135.29C1591.44 135.29 1591.49 135.29 1591.54 135.273V149.703C1590.76 149.622 1589.98 149.587 1589.19 149.587C1574.95 149.587 1563.69 162.347 1566.25 177.054C1568.18 188.18 1578.06 196.198 1589.16 196.198C1589.9 196.198 1590.65 196.163 1591.41 196.091C1591.45 196.082 1591.49 196.082 1591.54 196.073V210.503C1591.49 210.503 1591.44 210.503 1591.39 210.503C1590.64 210.432 1589.9 210.396 1589.16 210.396C1578.05 210.396 1568.17 218.406 1566.24 229.541C1563.69 244.257 1574.95 257.008 1589.19 257.008C1589.98 257.008 1590.76 256.972 1591.54 256.892V271.322C1590.76 271.242 1589.98 271.206 1589.19 271.206C1574.95 271.206 1563.69 283.966 1566.24 298.682C1568.17 309.817 1578.06 317.827 1589.18 317.827C1589.91 317.827 1590.65 317.791 1591.39 317.72C1591.44 317.72 1591.49 317.72 1591.54 317.702V332.132C1590.76 332.051 1589.98 332.016 1589.19 332.016C1574.96 332.016 1563.7 344.767 1566.24 359.474C1568.17 370.618 1578.05 378.636 1589.17 378.636C1589.9 378.636 1590.64 378.601 1591.39 378.529C1591.44 378.529 1591.49 378.529 1591.54 378.511V392.932C1590.76 392.852 1589.98 392.816 1589.19 392.816C1574.95 392.816 1563.69 405.594 1566.25 420.301C1568.18 431.427 1578.06 439.437 1589.16 439.437C1589.9 439.437 1590.65 439.401 1591.41 439.33C1591.45 439.321 1591.49 439.321 1591.54 439.312V453.742C1590.76 453.662 1589.98 453.626 1589.19 453.626C1574.95 453.626 1563.69 466.395 1566.24 481.102C1568.17 492.228 1578.06 500.247 1589.16 500.247C1589.9 500.247 1590.65 500.211 1591.41 500.14C1591.45 500.131 1591.49 500.131 1591.54 500.122V514.552C1590.76 514.471 1589.98 514.436 1589.19 514.436C1574.95 514.436 1563.69 527.196 1566.24 541.912C1568.17 553.047 1578.06 561.057 1589.18 561.057C1589.91 561.057 1590.65 561.021 1591.39 560.949C1591.44 560.94 1591.49 560.94 1591.54 560.932V575.353C1590.76 575.272 1589.98 575.237 1589.19 575.237C1574.95 575.237 1563.69 588.006 1566.24 602.713C1568.17 613.839 1578.06 621.857 1589.16 621.857C1589.9 621.857 1590.65 621.822 1591.41 621.75C1591.45 621.741 1591.49 621.741 1591.54 621.732V636.162C1590.76 636.082 1589.98 636.046 1589.19 636.046C1574.95 636.046 1563.69 648.824 1566.25 663.531C1568.18 674.657 1578.06 682.667 1589.16 682.667C1589.9 682.667 1590.65 682.631 1591.41 682.56C1591.45 682.551 1591.49 682.551 1591.54 682.542V696.972C1590.76 696.892 1589.98 696.856 1589.19 696.856C1574.95 696.856 1563.69 709.616 1566.24 724.332C1568.17 735.467 1578.06 743.477 1589.18 743.477C1589.91 743.477 1590.65 743.441 1591.39 743.37C1591.44 743.361 1591.49 743.361 1591.54 743.352V756.692C1552.28 756.692 1520.47 788.517 1520.47 827.771H75.5344C75.5344 788.517 43.7187 756.692 4.46474 756.692V743.352C4.46474 743.352 4.56296 743.352 4.60761 743.37C5.34875 743.441 6.0899 743.477 6.82212 743.477C17.9393 743.477 27.8332 735.467 29.7619 724.332C32.3068 709.616 21.0468 696.856 6.81319 696.856C6.01846 696.856 5.2416 696.892 4.46474 696.972V682.542C4.46474 682.542 4.5451 682.551 4.58975 682.56C5.33982 682.631 6.0899 682.667 6.83997 682.667C17.9482 682.667 27.8242 674.648 29.753 663.531C32.3068 648.824 21.0468 636.046 6.81319 636.046C6.01846 636.046 5.2416 636.082 4.46474 636.162V621.732C4.46474 621.732 4.5451 621.741 4.58975 621.75C5.33982 621.822 6.0899 621.857 6.83997 621.857C17.9482 621.857 27.8332 613.839 29.7619 602.713C32.3068 588.006 21.0468 575.237 6.81319 575.237C6.01846 575.237 5.2416 575.272 4.46474 575.353V560.932C4.46474 560.932 4.56296 560.94 4.60761 560.949C5.34875 561.021 6.0899 561.057 6.82212 561.057C17.9393 561.057 27.8332 553.047 29.7619 541.912C32.3068 527.196 21.0468 514.436 6.81319 514.436C6.01846 514.436 5.2416 514.471 4.46474 514.552V500.122C4.46474 500.122 4.5451 500.131 4.58975 500.14C5.33982 500.211 6.0899 500.247 6.83997 500.247C17.9482 500.247 27.8332 492.228 29.7619 481.102C32.3068 466.395 21.0468 453.626 6.81319 453.626C6.01846 453.626 5.2416 453.662 4.46474 453.742V439.312C4.46474 439.312 4.5451 439.321 4.58975 439.33C5.33982 439.401 6.0899 439.437 6.83997 439.437C17.9482 439.437 27.8242 431.418 29.753 420.301C32.3068 405.594 21.0468 392.816 6.81319 392.816C6.01846 392.816 5.2416 392.852 4.46474 392.932V378.511C4.46474 378.511 4.56296 378.52 4.60761 378.529C5.34875 378.601 6.0899 378.636 6.83105 378.636C17.9572 378.636 27.8421 370.627 29.7619 359.474C32.2979 344.767 21.0378 332.016 6.81319 332.016C6.01846 332.016 5.2416 332.051 4.46474 332.132V317.702C4.46474 317.702 4.56296 317.711 4.60761 317.72C5.34875 317.791 6.0899 317.827 6.82212 317.827C17.9393 317.827 27.8332 309.817 29.7619 298.682C32.3068 283.966 21.0468 271.206 6.81319 271.206C6.01846 271.206 5.2416 271.242 4.46474 271.322V256.892C5.2416 256.972 6.01846 257.008 6.81319 257.008C21.0468 257.008 32.3068 244.257 29.7619 229.541C27.8332 218.406 17.9482 210.396 6.83997 210.396C6.09883 210.396 5.35768 210.432 4.60761 210.503C4.56296 210.503 4.50938 210.503 4.46474 210.503V196.073C4.46474 196.073 4.5451 196.082 4.58975 196.091C5.33982 196.163 6.0899 196.198 6.83997 196.198C17.9482 196.198 27.8332 188.18 29.753 177.054C32.3068 162.347 21.0468 149.587 6.81319 149.587C6.01846 149.587 5.2416 149.622 4.46474 149.703V135.273C4.46474 135.273 4.56296 135.273 4.60761 135.29C5.34875 135.362 6.0899 135.398 6.83105 135.398C17.9572 135.398 27.8421 127.388 29.7619 116.235C32.2979 101.528 21.0378 88.7768 6.81319 88.7768C6.01846 88.7768 5.2416 88.8125 4.46474 88.8929V75.5344C43.7187 75.5344 75.5344 43.7187 75.5344 4.46474H1520.47ZM1520.47 0H75.5344C73.0699 0 71.0697 2.0002 71.0697 4.46474C71.0697 41.1917 41.1917 71.0697 4.46474 71.0697C2.0002 71.0697 0 73.0699 0 75.5344V88.8929C0 90.1609 0.535768 91.3574 1.47336 92.2057C2.29487 92.9469 3.36641 93.3576 4.46474 93.3576C4.61654 93.3576 4.76834 93.3576 4.92014 93.3308C5.51841 93.2683 6.14348 93.2415 6.81319 93.2415C12.3852 93.2415 17.6357 95.6882 21.2343 99.9565C24.8775 104.278 26.3419 109.797 25.3597 115.476C23.8328 124.289 15.8677 130.933 6.82212 130.933C6.25063 130.933 5.67914 130.906 5.10766 130.852C5.08087 130.852 5.05408 130.852 5.03622 130.852C4.8487 130.826 4.65225 130.817 4.46474 130.817C3.43785 130.817 2.43775 131.165 1.63409 131.826C0.598275 132.674 0 133.942 0 135.281V149.712C0 150.98 0.535768 152.176 1.47336 153.024C2.29487 153.765 3.36641 154.176 4.46474 154.176C4.61654 154.176 4.76834 154.176 4.92014 154.149C5.51841 154.087 6.14348 154.06 6.81319 154.06C12.3852 154.06 17.6446 156.507 21.2432 160.784C24.8864 165.106 26.3419 170.624 25.3597 176.303C23.8328 185.108 15.8766 191.751 6.83997 191.751C6.26849 191.751 5.68807 191.725 5.12552 191.671C4.91121 191.635 4.6969 191.626 4.47367 191.626C3.44678 191.626 2.44668 191.975 1.64302 192.635C0.607204 193.484 0.00892947 194.752 0.00892947 196.091V210.521C0.00892947 212.986 2.00913 214.986 4.47367 214.986C4.59868 214.986 4.73262 214.986 4.87549 214.968C4.92907 214.968 4.99157 214.968 5.04515 214.959C5.64343 214.906 6.25063 214.87 6.8489 214.87C15.8855 214.87 23.8506 221.504 25.3686 230.309C26.3509 235.997 24.8864 241.506 21.2432 245.837C17.6536 250.106 12.3941 252.552 6.81319 252.552C6.14348 252.552 5.52734 252.525 4.92014 252.463C4.76834 252.445 4.61654 252.436 4.46474 252.436C3.36641 252.436 2.29487 252.838 1.47336 253.588C0.535768 254.436 0 255.642 0 256.901V271.331C0 272.599 0.535768 273.804 1.47336 274.644C2.29487 275.385 3.36641 275.796 4.46474 275.796C4.61654 275.796 4.76834 275.796 4.92014 275.769C5.51841 275.706 6.14348 275.68 6.81319 275.68C12.3852 275.68 17.6446 278.126 21.2343 282.395C24.8775 286.725 26.3419 292.244 25.3597 297.932C23.8328 306.736 15.8677 313.371 6.82212 313.371C6.25063 313.371 5.67914 313.344 5.10766 313.29C5.08087 313.29 5.05408 313.29 5.03622 313.29C4.8487 313.264 4.65225 313.255 4.46474 313.255C3.43785 313.255 2.43775 313.603 1.63409 314.264C0.598275 315.112 0 316.38 0 317.72V332.15C0 333.418 0.535768 334.614 1.47336 335.462C2.29487 336.204 3.36641 336.614 4.46474 336.614C4.61654 336.614 4.76834 336.614 4.92014 336.587C5.51841 336.525 6.14348 336.498 6.81319 336.498C12.3852 336.498 17.6357 338.945 21.2343 343.213C24.8775 347.535 26.3419 353.053 25.3597 358.733C23.8328 367.546 15.8677 374.189 6.82212 374.189C6.25063 374.189 5.67914 374.163 5.10766 374.109C5.08087 374.109 5.05408 374.109 5.03622 374.109C4.8487 374.082 4.65225 374.073 4.46474 374.073C3.43785 374.073 2.43775 374.422 1.63409 375.082C0.598275 375.931 0 377.199 0 378.538V392.959C0 394.227 0.535768 395.424 1.47336 396.272C2.29487 397.013 3.36641 397.424 4.46474 397.424C4.61654 397.424 4.76834 397.424 4.92014 397.397C5.51841 397.335 6.14348 397.308 6.81319 397.308C12.3852 397.308 17.6357 399.755 21.2343 404.032C24.8775 408.363 26.3419 413.881 25.3508 419.569C23.8238 428.374 15.8587 435.008 6.83105 435.008C6.25956 435.008 5.67914 434.981 5.11659 434.928C4.90228 434.892 4.68797 434.883 4.46474 434.883C3.43785 434.883 2.43775 435.231 1.63409 435.892C0.598275 436.74 0 438.008 0 439.348V453.778C0 455.046 0.535768 456.251 1.47336 457.091C2.29487 457.832 3.36641 458.243 4.46474 458.243C4.61654 458.243 4.76834 458.243 4.92014 458.216C5.51841 458.153 6.14348 458.127 6.81319 458.127C12.3852 458.127 17.6446 460.573 21.2343 464.841C24.8775 469.172 26.3419 474.691 25.3597 480.37C23.8328 489.174 15.8677 495.818 6.83105 495.818C6.25956 495.818 5.67914 495.791 5.11659 495.737C4.90228 495.702 4.68797 495.693 4.46474 495.693C3.43785 495.693 2.43775 496.041 1.63409 496.702C0.598275 497.55 0 498.818 0 500.158V514.588C0 515.856 0.535768 517.061 1.47336 517.9C2.29487 518.642 3.36641 519.052 4.46474 519.052C4.61654 519.052 4.76834 519.052 4.92014 519.026C5.51841 518.963 6.14348 518.936 6.81319 518.936C12.3852 518.936 17.6446 521.383 21.2343 525.651C24.8775 529.982 26.3419 535.5 25.3597 541.188C23.8328 549.993 15.8677 556.628 6.82212 556.628C6.25063 556.628 5.67914 556.601 5.10766 556.547C5.08087 556.547 5.05408 556.547 5.03622 556.547C4.8487 556.52 4.65225 556.511 4.46474 556.511C3.43785 556.511 2.43775 556.86 1.63409 557.52C0.598275 558.369 0 559.637 0 560.976V575.397C0 576.665 0.535768 577.871 1.47336 578.71C2.29487 579.451 3.36641 579.862 4.46474 579.862C4.61654 579.862 4.76834 579.862 4.92014 579.835C5.51841 579.773 6.14348 579.746 6.81319 579.746C12.3852 579.746 17.6446 582.193 21.2343 586.461C24.8775 590.792 26.3419 596.31 25.3597 601.989C23.8328 610.794 15.8677 617.437 6.83105 617.437C6.25956 617.437 5.67914 617.41 5.11659 617.357C4.90228 617.321 4.68797 617.312 4.46474 617.312C3.43785 617.312 2.43775 617.66 1.63409 618.321C0.598275 619.17 0 620.438 0 621.777V636.207C0 637.475 0.535768 638.68 1.47336 639.52C2.29487 640.261 3.36641 640.672 4.46474 640.672C4.61654 640.672 4.76834 640.672 4.92014 640.645C5.51841 640.582 6.14348 640.556 6.81319 640.556C12.3852 640.556 17.6357 643.002 21.2343 647.28C24.8775 651.61 26.3419 657.129 25.3508 662.817C23.8238 671.621 15.8587 678.256 6.83105 678.256C6.25956 678.256 5.67914 678.229 5.11659 678.175C4.90228 678.14 4.68797 678.131 4.46474 678.131C3.43785 678.131 2.43775 678.479 1.63409 679.14C0.598275 679.988 0 681.256 0 682.596V697.026C0 698.294 0.535768 699.49 1.47336 700.338C2.29487 701.08 3.36641 701.49 4.46474 701.49C4.61654 701.49 4.76834 701.49 4.92014 701.464C5.51841 701.401 6.14348 701.374 6.81319 701.374C12.3852 701.374 17.6446 703.821 21.2343 708.089C24.8775 712.42 26.3419 717.938 25.3597 723.627C23.8328 732.431 15.8677 739.066 6.82212 739.066C6.25063 739.066 5.67914 739.039 5.10766 738.985C5.08087 738.985 5.05408 738.985 5.03622 738.985C4.8487 738.958 4.65225 738.949 4.46474 738.949C3.43785 738.949 2.43775 739.298 1.63409 739.958C0.598275 740.807 0 742.075 0 743.414V756.755C0 759.219 2.0002 761.22 4.46474 761.22C41.1917 761.22 71.0697 791.107 71.0697 827.833C71.0697 830.298 73.0699 832.298 75.5344 832.298H1520.47C1522.93 832.298 1524.93 830.298 1524.93 827.833C1524.93 791.107 1554.81 761.22 1591.54 761.22C1594 761.22 1596 759.219 1596 756.755V743.414C1596 742.075 1595.4 740.807 1594.37 739.958C1593.56 739.298 1592.56 738.949 1591.54 738.949C1591.34 738.949 1591.15 738.958 1590.95 738.985C1590.93 738.985 1590.91 738.985 1590.88 738.985C1590.31 739.039 1589.74 739.066 1589.17 739.066C1580.12 739.066 1572.16 732.431 1570.63 723.627C1569.65 717.938 1571.11 712.42 1574.76 708.089C1578.35 703.821 1583.61 701.374 1589.18 701.374C1589.85 701.374 1590.46 701.401 1591.07 701.464C1591.22 701.481 1591.37 701.49 1591.53 701.49C1592.62 701.49 1593.7 701.089 1594.52 700.338C1595.46 699.49 1595.99 698.285 1595.99 697.026V682.596C1595.99 681.256 1595.39 679.988 1594.36 679.14C1593.55 678.479 1592.55 678.131 1591.53 678.131C1591.31 678.131 1591.1 678.149 1590.88 678.175C1590.88 678.175 1590.88 678.175 1590.87 678.175C1590.3 678.229 1589.73 678.256 1589.16 678.256C1580.13 678.256 1572.18 671.621 1570.64 662.817C1569.65 657.129 1571.11 651.619 1574.76 647.28C1578.35 643.011 1583.61 640.556 1589.18 640.556C1589.85 640.556 1590.46 640.582 1591.07 640.645C1591.22 640.663 1591.37 640.672 1591.53 640.672C1592.62 640.672 1593.7 640.27 1594.52 639.52C1595.46 638.672 1595.99 637.466 1595.99 636.207V621.777C1595.99 620.438 1595.39 619.17 1594.36 618.321C1593.55 617.66 1592.55 617.312 1591.53 617.312C1591.31 617.312 1591.1 617.33 1590.88 617.357C1590.88 617.357 1590.88 617.357 1590.87 617.357C1590.3 617.41 1589.73 617.437 1589.16 617.437C1580.12 617.437 1572.17 610.794 1570.63 601.989C1569.65 596.31 1571.11 590.792 1574.76 586.461C1578.36 582.193 1583.61 579.746 1589.18 579.746C1589.85 579.746 1590.46 579.773 1591.07 579.835C1591.22 579.853 1591.37 579.862 1591.53 579.862C1592.62 579.862 1593.7 579.46 1594.52 578.71C1595.46 577.862 1595.99 576.656 1595.99 575.397V560.976C1595.99 559.637 1595.39 558.369 1594.36 557.52C1593.55 556.86 1592.55 556.511 1591.53 556.511C1591.33 556.511 1591.14 556.52 1590.95 556.547C1590.92 556.547 1590.9 556.547 1590.87 556.547C1590.3 556.601 1589.73 556.628 1589.16 556.628C1580.11 556.628 1572.15 549.993 1570.62 541.188C1569.64 535.5 1571.1 529.982 1574.75 525.651C1578.34 521.383 1583.6 518.936 1589.17 518.936C1589.84 518.936 1590.45 518.963 1591.06 519.026C1591.21 519.043 1591.37 519.052 1591.52 519.052C1592.62 519.052 1593.69 518.65 1594.51 517.9C1595.45 517.052 1595.98 515.847 1595.98 514.588V500.158C1595.98 498.818 1595.38 497.55 1594.35 496.702C1593.54 496.041 1592.54 495.693 1591.52 495.693C1591.3 495.693 1591.09 495.711 1590.87 495.737C1590.87 495.737 1590.87 495.737 1590.87 495.737C1590.29 495.791 1589.72 495.818 1589.15 495.818C1580.11 495.818 1572.16 489.174 1570.62 480.37C1569.64 474.691 1571.1 469.172 1574.75 464.841C1578.35 460.573 1583.6 458.127 1589.17 458.127C1589.84 458.127 1590.45 458.153 1591.06 458.216C1591.21 458.234 1591.37 458.243 1591.52 458.243C1592.62 458.243 1593.69 457.841 1594.51 457.091C1595.45 456.242 1595.98 455.037 1595.98 453.778V439.348C1595.98 438.008 1595.38 436.74 1594.35 435.892C1593.54 435.231 1592.54 434.883 1591.52 434.883C1591.3 434.883 1591.09 434.901 1590.87 434.928C1590.87 434.928 1590.87 434.928 1590.87 434.928C1590.29 434.981 1589.72 435.008 1589.15 435.008C1580.12 435.008 1572.17 428.374 1570.63 419.569C1569.64 413.881 1571.1 408.372 1574.75 404.032C1578.34 399.764 1583.6 397.308 1589.17 397.308C1589.84 397.308 1590.45 397.335 1591.06 397.397C1591.21 397.415 1591.37 397.424 1591.52 397.424C1592.62 397.424 1593.69 397.022 1594.51 396.272C1595.45 395.424 1595.98 394.218 1595.98 392.959V378.538C1595.98 377.199 1595.38 375.931 1594.35 375.082C1593.54 374.422 1592.54 374.073 1591.52 374.073C1591.32 374.073 1591.13 374.082 1590.94 374.109C1590.91 374.109 1590.89 374.109 1590.87 374.109C1590.29 374.163 1589.72 374.189 1589.15 374.189C1580.11 374.189 1572.14 367.546 1570.61 358.733C1569.63 353.053 1571.1 347.535 1574.74 343.213C1578.33 338.945 1583.59 336.498 1589.16 336.498C1589.83 336.498 1590.45 336.525 1591.05 336.587C1591.2 336.605 1591.36 336.614 1591.51 336.614C1592.61 336.614 1593.68 336.212 1594.5 335.462C1595.44 334.614 1595.97 333.409 1595.97 332.15V317.72C1595.97 316.38 1595.38 315.112 1594.34 314.264C1593.54 313.603 1592.54 313.255 1591.51 313.255C1591.31 313.255 1591.12 313.264 1590.93 313.29C1590.9 313.29 1590.88 313.29 1590.86 313.29C1590.29 313.344 1589.71 313.371 1589.14 313.371C1580.1 313.371 1572.13 306.736 1570.6 297.932C1569.62 292.244 1571.09 286.725 1574.73 282.395C1578.32 278.126 1583.58 275.68 1589.15 275.68C1589.82 275.68 1590.44 275.706 1591.04 275.769C1591.2 275.787 1591.35 275.796 1591.5 275.796C1592.6 275.796 1593.67 275.394 1594.49 274.644C1595.43 273.795 1595.96 272.59 1595.96 271.331V256.901C1595.96 255.633 1595.43 254.436 1594.49 253.588C1593.67 252.847 1592.6 252.436 1591.5 252.436C1591.35 252.436 1591.2 252.436 1591.04 252.463C1590.45 252.525 1589.83 252.552 1589.15 252.552C1583.58 252.552 1578.32 250.106 1574.72 245.837C1571.08 241.515 1569.61 235.997 1570.6 230.309C1572.11 221.504 1580.08 214.87 1589.12 214.87C1589.71 214.87 1590.32 214.897 1590.92 214.959C1590.98 214.959 1591.04 214.968 1591.1 214.977C1591.23 214.986 1591.37 214.995 1591.49 214.995C1593.96 214.995 1595.96 212.995 1595.96 210.53V196.1C1595.96 194.761 1595.36 193.493 1594.32 192.644C1593.52 191.984 1592.52 191.635 1591.49 191.635C1591.28 191.635 1591.06 191.653 1590.85 191.68C1590.85 191.68 1590.85 191.68 1590.84 191.68C1590.27 191.734 1589.7 191.76 1589.12 191.76C1580.09 191.76 1572.13 185.126 1570.6 176.321C1569.61 170.633 1571.08 165.124 1574.72 160.802C1578.31 156.534 1583.57 154.078 1589.15 154.078C1589.82 154.078 1590.44 154.105 1591.04 154.167C1591.2 154.185 1591.35 154.194 1591.5 154.194C1592.6 154.194 1593.67 153.792 1594.49 153.042C1595.43 152.194 1595.96 150.988 1595.96 149.729V135.299C1595.96 133.96 1595.37 132.692 1594.33 131.844C1593.53 131.183 1592.53 130.835 1591.5 130.835C1591.3 130.835 1591.12 130.844 1590.92 130.87C1590.89 130.87 1590.87 130.87 1590.85 130.87C1590.28 130.924 1589.7 130.951 1589.13 130.951C1580.09 130.951 1572.12 124.307 1570.6 115.494C1569.61 109.815 1571.08 104.296 1574.72 99.9744C1578.31 95.7061 1583.57 93.2594 1589.14 93.2594C1589.81 93.2594 1590.43 93.2862 1591.04 93.3487C1591.19 93.3666 1591.34 93.3755 1591.49 93.3755C1592.59 93.3755 1593.66 92.9737 1594.48 92.2236C1595.42 91.3753 1595.96 90.1698 1595.96 88.9107V75.5523C1595.96 73.0877 1593.96 71.0875 1591.49 71.0875C1554.76 71.0875 1524.89 41.2095 1524.89 4.48259C1524.89 2.01806 1522.89 0.0178589 1520.42 0.0178589L1520.47 0Z" fill="#0A0204"/>
</svg>
